<?xml version="1.0" encoding="utf-8"?>
<!-- Generator: Adobe Illustrator 26.5.0, SVG Export Plug-In . SVG Version: 6.00 Build 0)  -->
<svg version="1.1" id="Camada_1" xmlns="http://www.w3.org/2000/svg" xmlns:xlink="http://www.w3.org/1999/xlink" x="0px"
	y="0px" viewBox="0 0 595.28 919.39" style="enable-background:new 0 0 595.28 919.39;" xml:space="preserve">
	<g>
		<rect x="85.28" y="68.2" width="424.72" height="62" />
		<rect x="85.28" y="171.2" width="424.72" height="62" />
		<rect x="85.28" y="274.2" width="424.72" height="62" />
		<rect x="85.28" y="377.2" width="424.72" height="62" />
		<rect x="85.28" y="480.2" width="424.72" height="62" />
		<rect x="85.28" y="583.2" width="424.72" height="62" />
		<rect x="85.28" y="686.2" width="424.72" height="62" />
		<rect x="85.28" y="789.2" width="424.72" height="62" />

	</g>
	<rect x="166" y="447.2" transform="matrix(-1.836970e-16 1 -1 -1.836970e-16 1017.1975 -97.8025)"
		width="783" height="25" />
	<rect x="-353.72" y="447.2" transform="matrix(-1.836970e-16 1 -1 -1.836970e-16 497.4731 421.9219)"
		width="783" height="25" />
		<text transform="matrix(1 0 0 1 236.4572 34.9145)" class="st2 st3 st4">GETTER SAFE</text>
</svg>